<svg id="Ebene_1" data-name="Ebene 1" xmlns="http://www.w3.org/2000/svg" viewBox="0 0 1920 1920"><defs><style>.cls-1{fill:none;stroke-width:80px;}.cls-1,.cls-2{stroke:#004037;stroke-miterlimit:10;}.cls-2{fill:#004037;}</style></defs><rect class="cls-1" x="148" y="529.98" width="1624" height="860.05" rx="409.5"/><path class="cls-2" d="M350.3,835.6V864h.86q11.19-18.07,28.41-26.26a87.28,87.28,0,0,1,37.88-8.17q26.25,0,45.19,9.9a93.28,93.28,0,0,1,31.42,26.25,111.06,111.06,0,0,1,18.51,38.1,169.11,169.11,0,0,1,6,45.41,152.81,152.81,0,0,1-6,43,109.67,109.67,0,0,1-18.29,36.59,90.62,90.62,0,0,1-30.56,25.39q-18.3,9.46-42.83,9.47a86.72,86.72,0,0,1-38.09-8.39,72.12,72.12,0,0,1-28.63-24.75h-.86v105.46H292.19V835.6Zm79.41,176.48a48.92,48.92,0,0,0,16.36-15.71,64.93,64.93,0,0,0,8.83-22.6,133.7,133.7,0,0,0,2.58-26.26,124,124,0,0,0-2.8-26.25,70.15,70.15,0,0,0-9.25-23,51.88,51.88,0,0,0-16.57-16.36q-10.12-6.23-24.75-6.24-15.08,0-25.19,6.24A50.34,50.34,0,0,0,362.57,898a67.09,67.09,0,0,0-8.83,22.82,135.86,135.86,0,0,0-2.58,26.68,123.34,123.34,0,0,0,2.8,26.26,67.57,67.57,0,0,0,9,22.6,48.22,48.22,0,0,0,16.57,15.71q10.33,6,25,6Q419.61,1018.11,429.71,1012.08Z"/><path class="cls-2" d="M618,750.81v307.33H556.9V750.81Z"/><path class="cls-2" d="M865.09,983.67a59.25,59.25,0,0,0,10.33,19.8,57.33,57.33,0,0,0,16.79,14.21,45.58,45.58,0,0,0,22.82,5.59q20.65,0,31-9.25t13.34-25.61h59.4a97.88,97.88,0,0,1-14.64,32.06,101.35,101.35,0,0,1-23.24,23.68A98.49,98.49,0,0,1,951,1058.78a120.51,120.51,0,0,1-34.66,5,128.35,128.35,0,0,1-46.48-8.61,78,78,0,0,1-36.58-28.84,75.73,75.73,0,0,1-18.3,17.44,110.41,110.41,0,0,1-22.39,11.62,119.1,119.1,0,0,1-24.75,6.46,171.06,171.06,0,0,1-25.39,1.93,143.84,143.84,0,0,1-30.77-3.23,76.55,76.55,0,0,1-26.48-11,58.42,58.42,0,0,1-18.72-20.45q-7.11-12.69-7.1-31.2,0-18.95,6.45-31.21a55.83,55.83,0,0,1,17-19.8,74.74,74.74,0,0,1,23.9-11.19,246.91,246.91,0,0,1,27.11-5.81q19.37-3,33.58-5.17a171.05,171.05,0,0,0,23.45-5q9.25-2.79,13.56-7.53t4.31-13.34c0-5.74-1.16-10.47-3.44-14.21a25.56,25.56,0,0,0-9-8.82,36,36,0,0,0-12.69-4.31,97.24,97.24,0,0,0-14.42-1.07q-18.09,0-29.92,7.53t-12.7,26.9H665.38q.86-21.07,10.11-35.51a73.27,73.27,0,0,1,23.67-23.24,103,103,0,0,1,33.14-12.7,187.77,187.77,0,0,1,38.1-3.87,140.72,140.72,0,0,1,20.23,1.5A110.43,110.43,0,0,1,810.86,836a79.76,79.76,0,0,1,18.51,9.26A56.21,56.21,0,0,1,844,859.71a83.3,83.3,0,0,1,30.13-22.6q17.19-7.53,44.33-7.53,28,0,47.34,11a92.34,92.34,0,0,1,31.64,29.27A127,127,0,0,1,1015.31,912a217.38,217.38,0,0,1,5.6,49.72H862.08A65.71,65.71,0,0,0,865.09,983.67Zm-70.8-27.12q-8.84,2.16-18.51,3.66t-19.58,3a72.28,72.28,0,0,0-17.87,4.95,33.64,33.64,0,0,0-12.91,9.46q-5,6-4.95,16.79a27.2,27.2,0,0,0,3.22,13.78,26.08,26.08,0,0,0,8.61,9,34.33,34.33,0,0,0,12.27,4.73,74.65,74.65,0,0,0,13.78,1.29,62,62,0,0,0,17.43-2.58,49,49,0,0,0,16.14-8.18A44.23,44.23,0,0,0,804,998.09q4.72-8.82,4.74-20.87V949.67A34.69,34.69,0,0,1,794.29,956.55Zm162.49-53.37a48.19,48.19,0,0,0-9.26-16.79A44.74,44.74,0,0,0,912,870.47a49.07,49.07,0,0,0-20.87,4.3,47.34,47.34,0,0,0-15.72,11.62,51.89,51.89,0,0,0-9.89,16.79,57.17,57.17,0,0,0-3.45,19.8h97.71A65.19,65.19,0,0,0,956.78,903.18Z"/><path class="cls-2" d="M1114.74,835.6v31h1.3q11.61-19.37,30.13-28.19a87.11,87.11,0,0,1,37.87-8.82q24.54,0,40.24,6.67T1249,854.76q9,11.84,12.71,28.84a180,180,0,0,1,3.65,37.66v136.88h-61.11V932.45q0-27.54-8.61-41.11t-30.57-13.55q-25,0-36.15,14.84t-11.2,48.86v116.65h-61.12V835.6Z"/><path class="cls-2" d="M1432.4,835.6v40.89h-44.76V986.68q0,15.5,5.16,20.67t20.67,5.16q5.15,0,9.89-.43a82.62,82.62,0,0,0,9-1.29v47.35a146.29,146.29,0,0,1-17.22,1.72q-9.47.42-18.5.43a178.55,178.55,0,0,1-26.91-1.94,63.4,63.4,0,0,1-22.38-7.53,39.84,39.84,0,0,1-15.28-15.93q-5.59-10.32-5.6-27.12V876.49h-37V835.6h37V768.88h61.13V835.6Z"/><path class="cls-2" d="M1565,1124.42q-17.65,11.63-49.07,11.63-9.48,0-18.73-.65t-18.72-1.51v-50.36q8.6.85,17.65,1.72a126.93,126.93,0,0,0,18.08.43q12-1.29,17.86-9.46a30.58,30.58,0,0,0,5.81-18.08,36.63,36.63,0,0,0-2.59-13.78l-77.9-208.76h65L1572.72,988h.85l48.65-152.38h63.27l-93,250.08Q1582.61,1112.8,1565,1124.42Z"/></svg>